<?xml version="1.0" standalone="no"?>
<svg xmlns="http://www.w3.org/2000/svg" height="1920pt" preserveAspectRatio="xMidYMid meet" viewBox="0 0 1360 1920" width="1360pt">
  <path d="m6640 19183c-19-10-43-34-55-53-20-35-20-47-20-1055 0-963 1-1022 18-1053 50-92 192-96 247-7 20 32 20 43 18 1069l-3 1036-37 36c-45 46-112 56-168 27zm-3610-700c-38-27-59-55-66-90-16-81-31-62 611-750 333-356 619-658 636-670 63-45 169-20 204 47 18 35 19 107 2 137-23 41-1229 1324-1254 1334-39 15-106 11-133-8zm7175-627c-37-18-1171-981-1198-1018-27-36-28-115-3-152 26-41 75-66 128-66 57 0-5-48 693 544 324 275 557 480 568 498 32 60 12 139-44 181-35 25-105 31-144 13zm-7182-2176c-37-22-62-67-153-280-310-723-559-1528-741-2395-45-215-89-455-135-735-5-36-42-306-59-435-8-60-19-157-24-215-6-58-15-152-21-210-5-58-16-211-24-340-72-1174 41-2225 316-2935 43-111 73-229 205-810 143-628 155-690 160-806 3-77 1-153-6-195-10-60-138-707-639-3228l-117-589-45-28c-114-72-302-125-695-194-317-56-419-78-555-117-190-54-388-164-456-254-23-30-29-48-29-90 0-62 23-100 76-126 19-9 684-147 1479-307 1590-319 1500-300 2035-412 209-44 403-85 432-91 28-6 67-8 87-4 74 14 127 102 106 177-13 46-140 199-266 319-129 123-243 209-554 420-340 230-457 330-545 469l-23 37 104 519c56 286 222 1123 368 1860 147 737 277 1387 291 1445 14 62 40 136 63 180 21 41 214 335 430 653 336 496 408 596 504 700 478 521 909 1271 1279 2228 116 299 297 855 384 1179 43 158 64 241 78 300 9 36 27 112 41 170 38 157 76 338 146 695 9 48 30 181 68 425l18 115 7-60c4-33 16-143 28-245 33-302 117-851 166-1090 8-41 16-82 18-90 35-173 64-304 105-475 16-66 33-138 39-160 9-42 66-256 102-385 19-70 43-152 117-395 172-563 431-1203 701-1730 305-595 602-1029 956-1395 124-130 184-206 540-692 220-300 414-572 432-604 61-111 93-225 217-787 68-309 181-818 250-1132 69-313 202-916 295-1339l170-769-28-41c-43-62-184-194-291-273-52-38-192-134-310-213-283-188-384-264-493-369-111-107-167-179-212-273-45-93-47-152-9-198 31-37 73-60 108-60 32 0 457 92 2196 474 441 97 1006 218 1454 312 169 35 318 67 331 70 35 9 84 62 95 105 8 30 7 46-5 76-24 57-41 71-160 131-234 117-427 174-860 252-406 74-512 102-655 176-47 25-93 51-103 58-13 10-42 126-118 467-165 752-254 1153-349 1584-50 226-126 572-170 770s-114 515-156 705c-70 314-77 355-76 450 1 91 18 201 131 805 121 649 134 711 181 845 139 395 226 862 272 1470 16 213 16 968 0 1205-38 552-105 1100-192 1565-20 106-70 356-85 425-8 39-20 92-25 119-40 199-191 761-296 1100-155 497-365 1044-567 1469-67 139-93 172-151 182-22 5-399-75-1257-264-673-148-1440-318-1704-376s-489-107-500-110c-20-4-20 1-20 418 0 468 0 466-66 506-18 11-162 45-367 85-185 37-890 177-1567 311-676 134-1311 260-1409 280-206 40-248 43-293 15zm872-424c374-74 986-196 1360-270 374-75 784-156 910-181 127-25 241-47 254-50l24-6-6-417c-7-512-28-816-92-1327-30-234-40-303-47-311-3-3-507 94-1119 216-613 122-1445 287-1849 367s-751 149-771 154l-37 9 25 93c183 689 347 1180 580 1735 43 103 59 131 72 128 9-3 322-66 696-140zm6259-871c150-334 283-675 417-1075 108-325 231-738 220-744-3-3-139-34-301-70-359-79-2061-454-2775-611-286-63-548-122-582-130-107-26-95-42-131 193-57 371-90 649-117 992-20 257-40 839-29 849 5 4 720 164 1589 355 869 192 1594 352 1610 356 17 5 33 9 36 9 4 1 32-55 63-124z" transform="matrix(.1 0 0 -.1 0 1920)" fill="#D4AF37" stroke="none" stroke-width="2" vector-effect="non-scaling-stroke"/>
</svg>
